<mxfile host="app.diagrams.net" modified="2021-09-02T10:32:20.327Z" agent="5.0 (Macintosh; Intel Mac OS X 10_15_7) AppleWebKit/537.36 (KHTML, like Gecko) Chrome/92.0.4515.159 Safari/537.36" etag="GsM6AS8x6XwA7FShsnss" version="15.0.3" type="github">
  <diagram id="xgqSkNKWqGXnJpBBqUsw" name="Page-1">
    <mxGraphModel dx="1722" dy="591" grid="1" gridSize="10" guides="1" tooltips="1" connect="1" arrows="1" fold="1" page="1" pageScale="1" pageWidth="827" pageHeight="1169" math="0" shadow="0">
      <root>
        <mxCell id="0" />
        <mxCell id="1" parent="0" />
        <mxCell id="6Pa_dySf2H8fRxNGPGET-24" value="&lt;span style=&quot;text-align: center&quot;&gt;src/app/service/&lt;/span&gt;&lt;span style=&quot;text-align: center&quot;&gt;materialHostService.ts&lt;/span&gt;" style="rounded=0;whiteSpace=wrap;html=1;dashed=1;fillColor=none;align=right;verticalAlign=top;" vertex="1" parent="1">
          <mxGeometry x="-430" y="440" width="730" height="400" as="geometry" />
        </mxCell>
        <mxCell id="6Pa_dySf2H8fRxNGPGET-22" value="&lt;span&gt;src/app/controller/&lt;/span&gt;&lt;span&gt;materialHostController.ts&lt;/span&gt;&lt;span&gt;&lt;br&gt;&lt;/span&gt;" style="rounded=0;whiteSpace=wrap;html=1;fillColor=none;verticalAlign=top;align=right;dashed=1;" vertex="1" parent="1">
          <mxGeometry x="-270" y="160" width="430" height="185" as="geometry" />
        </mxCell>
        <mxCell id="6Pa_dySf2H8fRxNGPGET-23" style="edgeStyle=orthogonalEdgeStyle;rounded=0;orthogonalLoop=1;jettySize=auto;html=1;" edge="1" parent="1" source="6Pa_dySf2H8fRxNGPGET-1" target="6Pa_dySf2H8fRxNGPGET-6">
          <mxGeometry relative="1" as="geometry" />
        </mxCell>
        <mxCell id="6Pa_dySf2H8fRxNGPGET-1" value="src/app.ts&lt;br&gt;typeorm连接数据库" style="rounded=0;whiteSpace=wrap;html=1;" vertex="1" parent="1">
          <mxGeometry x="110" y="20" width="170" height="60" as="geometry" />
        </mxCell>
        <mxCell id="6Pa_dySf2H8fRxNGPGET-26" style="edgeStyle=orthogonalEdgeStyle;rounded=0;orthogonalLoop=1;jettySize=auto;html=1;" edge="1" parent="1" source="6Pa_dySf2H8fRxNGPGET-6" target="6Pa_dySf2H8fRxNGPGET-10">
          <mxGeometry relative="1" as="geometry" />
        </mxCell>
        <mxCell id="6Pa_dySf2H8fRxNGPGET-6" value="&lt;pre style=&quot;background-color: #282c34 ; color: #abb2bf ; font-family: &amp;#34;menlo&amp;#34; , monospace ; font-size: 11.3pt&quot;&gt;&lt;span style=&quot;color: #61aeef&quot;&gt;@get&lt;/span&gt;&lt;span style=&quot;color: #a6b2c0&quot;&gt;(&lt;/span&gt;&lt;span style=&quot;color: #98c379&quot;&gt;&#39;/&#39;&lt;/span&gt;&lt;span style=&quot;color: #a6b2c0&quot;&gt;)&lt;/span&gt;&lt;/pre&gt;" style="whiteSpace=wrap;html=1;" vertex="1" parent="1">
          <mxGeometry x="-140" y="230" width="120" height="60" as="geometry" />
        </mxCell>
        <mxCell id="6Pa_dySf2H8fRxNGPGET-15" style="edgeStyle=orthogonalEdgeStyle;rounded=0;orthogonalLoop=1;jettySize=auto;html=1;" edge="1" parent="1" source="6Pa_dySf2H8fRxNGPGET-10" target="6Pa_dySf2H8fRxNGPGET-14">
          <mxGeometry relative="1" as="geometry" />
        </mxCell>
        <mxCell id="6Pa_dySf2H8fRxNGPGET-10" value="&lt;pre style=&quot;background-color: #282c34 ; color: #abb2bf ; font-family: &amp;#34;menlo&amp;#34; , monospace ; font-size: 11.3pt&quot;&gt;&lt;span style=&quot;color: #c679dd ; font-style: italic&quot;&gt;public async &lt;/span&gt;&lt;span style=&quot;color: #61aeef&quot;&gt;getMaterialListWithConditions&lt;/span&gt;&lt;/pre&gt;" style="whiteSpace=wrap;html=1;" vertex="1" parent="1">
          <mxGeometry x="-285" y="510" width="410" height="60" as="geometry" />
        </mxCell>
        <mxCell id="6Pa_dySf2H8fRxNGPGET-17" style="edgeStyle=orthogonalEdgeStyle;rounded=0;orthogonalLoop=1;jettySize=auto;html=1;" edge="1" parent="1" source="6Pa_dySf2H8fRxNGPGET-14" target="6Pa_dySf2H8fRxNGPGET-16">
          <mxGeometry relative="1" as="geometry" />
        </mxCell>
        <mxCell id="6Pa_dySf2H8fRxNGPGET-14" value="&lt;pre style=&quot;background-color: #282c34 ; color: #abb2bf ; font-family: &amp;#34;menlo&amp;#34; , monospace ; font-size: 11.3pt&quot;&gt;&lt;span style=&quot;color: #c679dd ; font-style: italic&quot;&gt;this&lt;/span&gt;&lt;span style=&quot;color: #a6b2c0&quot;&gt;.&lt;/span&gt;&lt;span style=&quot;color: #61aeef&quot;&gt;getMaterialIdArray&lt;/span&gt;&lt;/pre&gt;" style="rounded=0;whiteSpace=wrap;html=1;" vertex="1" parent="1">
          <mxGeometry x="-205" y="630" width="250" height="60" as="geometry" />
        </mxCell>
        <mxCell id="6Pa_dySf2H8fRxNGPGET-18" style="edgeStyle=orthogonalEdgeStyle;rounded=0;orthogonalLoop=1;jettySize=auto;html=1;entryX=1;entryY=0.5;entryDx=0;entryDy=0;" edge="1" parent="1" source="6Pa_dySf2H8fRxNGPGET-16" target="6Pa_dySf2H8fRxNGPGET-1">
          <mxGeometry relative="1" as="geometry">
            <Array as="points">
              <mxPoint x="-80" y="880" />
              <mxPoint x="560" y="880" />
              <mxPoint x="560" y="50" />
            </Array>
          </mxGeometry>
        </mxCell>
        <mxCell id="6Pa_dySf2H8fRxNGPGET-16" value="&lt;pre style=&quot;background-color: #282c34 ; color: #abb2bf ; font-family: &amp;#34;menlo&amp;#34; , monospace ; font-size: 11.3pt&quot;&gt;&lt;span style=&quot;color: #c679dd ; font-style: italic&quot;&gt;const &lt;/span&gt;&lt;span style=&quot;color: #d19a66&quot;&gt;countResult &lt;/span&gt;&lt;span style=&quot;color: #61afef&quot;&gt;= &lt;/span&gt;&lt;span style=&quot;color: #c679dd ; font-style: italic&quot;&gt;await &lt;/span&gt;&lt;span style=&quot;color: #e5c17c ; font-style: italic&quot;&gt;getManager&lt;/span&gt;&lt;span style=&quot;color: #a6b2c0&quot;&gt;().&lt;/span&gt;&lt;span style=&quot;color: #61aeef&quot;&gt;query&lt;/span&gt;&lt;span style=&quot;color: #a6b2c0&quot;&gt;(&lt;/span&gt;&lt;span style=&quot;color: #d19a66&quot;&gt;countQuery&lt;/span&gt;&lt;span style=&quot;color: #a6b2c0&quot;&gt;, &lt;/span&gt;&lt;span style=&quot;color: #d19a66&quot;&gt;countParamters&lt;/span&gt;&lt;span style=&quot;color: #a6b2c0&quot;&gt;);&lt;br/&gt;有了参数和地址请求&lt;/span&gt;&lt;/pre&gt;" style="whiteSpace=wrap;html=1;" vertex="1" parent="1">
          <mxGeometry x="-425" y="730" width="690" height="80" as="geometry" />
        </mxCell>
      </root>
    </mxGraphModel>
  </diagram>
</mxfile>
